<?xml version="1.0" encoding="UTF-8" standalone="no"?>
<!-- Created with Inkscape (http://www.inkscape.org/) -->

<svg
   xmlns:dc="http://purl.org/dc/elements/1.1/"
   xmlns:cc="http://creativecommons.org/ns#"
   xmlns:rdf="http://www.w3.org/1999/02/22-rdf-syntax-ns#"
   xmlns:svg="http://www.w3.org/2000/svg"
   xmlns="http://www.w3.org/2000/svg"
   xmlns:sodipodi="http://sodipodi.sourceforge.net/DTD/sodipodi-0.dtd"
   xmlns:inkscape="http://www.inkscape.org/namespaces/inkscape"
   width="25.322222mm"
   height="128.78223mm"
   viewBox="0 0 89.724408 456.31497"
   id="svg2"
   version="1.1"
   inkscape:version="0.91 r13725"
   sodipodi:docname="light_panel.svg">
  <sodipodi:namedview
     id="base"
     pagecolor="#ffffff"
     bordercolor="#666666"
     borderopacity="1.0"
     inkscape:pageopacity="0.0"
     inkscape:pageshadow="2"
     inkscape:zoom="1.979899"
     inkscape:cx="-25.567606"
     inkscape:cy="240.12578"
     inkscape:document-units="px"
     inkscape:current-layer="g4257"
     showgrid="false"
     inkscape:window-width="1858"
     inkscape:window-height="1178"
     inkscape:window-x="1974"
     inkscape:window-y="-8"
     inkscape:window-maximized="1"
     fit-margin-top="0"
     fit-margin-left="0"
     fit-margin-right="0"
     fit-margin-bottom="0" />
  <defs
     id="defs4" />
  <metadata
     id="metadata7">
    <rdf:RDF>
      <cc:Work
         rdf:about="">
        <dc:format>image/svg+xml</dc:format>
        <dc:type
           rdf:resource="http://purl.org/dc/dcmitype/StillImage" />
        <dc:title />
      </cc:Work>
    </rdf:RDF>
  </metadata>
  <g
     inkscape:label="Layer 1"
     inkscape:groupmode="layer"
     id="layer1"
     transform="translate(0,-596.04725)">
    <g
       id="g4257"
       transform="translate(-451.00185,255.46494)">
      <g
         style="fill:none;stroke:#ff0000;stroke-width:1;stroke-miterlimit:4;stroke-dasharray:none;stroke-opacity:1"
         inkscape:label="grp"
         transform="translate(451.50185,341.08229)"
         id="g4165">
        <path
           style="fill:none;stroke:#ff0000;stroke-width:1;stroke-miterlimit:4;stroke-dasharray:none;stroke-opacity:1"
           d="m 0,0 88.724411,0 0,455.31497 -88.724411,0 z"
           id="rect4167" />
        <path
           style="fill:none;stroke:#ff0000;stroke-width:1;stroke-miterlimit:4;stroke-dasharray:none;stroke-opacity:1"
           d="m 32.244094,10.629921 a 5.6692915,5.6692915 0 0 1 -5.669292,5.669291 5.6692915,5.6692915 0 0 1 -5.669291,-5.669291 5.6692915,5.6692915 0 0 1 5.669291,-5.6692915 5.6692915,5.6692915 0 0 1 5.669292,5.6692915 z"
           id="path4169" />
        <path
           style="fill:none;stroke:#ff0000;stroke-width:1;stroke-miterlimit:4;stroke-dasharray:none;stroke-opacity:1"
           d="m 32.244094,444.68503 a 5.6692915,5.6692915 0 0 1 -5.669292,5.66929 5.6692915,5.6692915 0 0 1 -5.669291,-5.66929 5.6692915,5.6692915 0 0 1 5.669291,-5.66929 5.6692915,5.6692915 0 0 1 5.669292,5.66929 z"
           id="path4171" />
        <path
           style="fill:none;stroke:#ff0000;stroke-width:1;stroke-miterlimit:4;stroke-dasharray:none;stroke-opacity:1"
           d="m 68.244094,10.629921 a 5.6692915,5.6692915 0 0 1 -5.669292,5.669291 5.6692915,5.6692915 0 0 1 -5.669291,-5.669291 5.6692915,5.6692915 0 0 1 5.669291,-5.6692915 5.6692915,5.6692915 0 0 1 5.669292,5.6692915 z"
           id="path4173" />
        <path
           style="fill:none;stroke:#ff0000;stroke-width:1;stroke-miterlimit:4;stroke-dasharray:none;stroke-opacity:1"
           d="m 68.244094,444.68503 a 5.6692915,5.6692915 0 0 1 -5.669292,5.66929 5.6692915,5.6692915 0 0 1 -5.669291,-5.66929 5.6692915,5.6692915 0 0 1 5.669291,-5.66929 5.6692915,5.6692915 0 0 1 5.669292,5.66929 z"
           id="path4175" />
      </g>
      <path
         style="color:#000000;clip-rule:nonzero;display:inline;overflow:visible;visibility:visible;opacity:1;isolation:auto;mix-blend-mode:normal;color-interpolation:sRGB;color-interpolation-filters:linearRGB;solid-color:#000000;solid-opacity:1;fill:none;fill-opacity:1;fill-rule:nonzero;stroke:#ff0000;stroke-width:1.1405741;stroke-linecap:butt;stroke-linejoin:miter;stroke-miterlimit:4;stroke-dasharray:none;stroke-dashoffset:0;stroke-opacity:1;color-rendering:auto;image-rendering:auto;shape-rendering:auto;text-rendering:auto;enable-background:accumulate"
         d="m 488.59783,731.37482 a 10.94546,10.945461 0 0 1 -10.94546,10.94546 10.94546,10.945461 0 0 1 -10.94546,-10.94546 10.94546,10.945461 0 0 1 10.94546,-10.94546 10.94546,10.945461 0 0 1 10.94546,10.94546 z"
         id="path4192" />
      <path
         style="color:#000000;clip-rule:nonzero;display:inline;overflow:visible;visibility:visible;opacity:1;isolation:auto;mix-blend-mode:normal;color-interpolation:sRGB;color-interpolation-filters:linearRGB;solid-color:#000000;solid-opacity:1;fill:none;fill-opacity:1;fill-rule:nonzero;stroke:#ff0000;stroke-width:1.1405741;stroke-linecap:butt;stroke-linejoin:miter;stroke-miterlimit:4;stroke-dasharray:none;stroke-dashoffset:0;stroke-opacity:1;color-rendering:auto;image-rendering:auto;shape-rendering:auto;text-rendering:auto;enable-background:accumulate"
         d="m 488.59783,623.37488 a 10.94546,10.945461 0 0 1 -10.94546,10.94546 10.94546,10.945461 0 0 1 -10.94546,-10.94546 10.94546,10.945461 0 0 1 10.94546,-10.94546 10.94546,10.945461 0 0 1 10.94546,10.94546 z"
         id="path4192-1" />
      <path
         style="color:#000000;clip-rule:nonzero;display:inline;overflow:visible;visibility:visible;opacity:1;isolation:auto;mix-blend-mode:normal;color-interpolation:sRGB;color-interpolation-filters:linearRGB;solid-color:#000000;solid-opacity:1;fill:none;fill-opacity:1;fill-rule:nonzero;stroke:#ff0000;stroke-width:1.1405741;stroke-linecap:butt;stroke-linejoin:miter;stroke-miterlimit:4;stroke-dasharray:none;stroke-dashoffset:0;stroke-opacity:1;color-rendering:auto;image-rendering:auto;shape-rendering:auto;text-rendering:auto;enable-background:accumulate"
         d="m 488.59783,677.37488 a 10.94546,10.945461 0 0 1 -10.94546,10.94546 10.94546,10.945461 0 0 1 -10.94546,-10.94546 10.94546,10.945461 0 0 1 10.94546,-10.94546 10.94546,10.945461 0 0 1 10.94546,10.94546 z"
         id="path4192-0" />
      <path
         style="color:#000000;clip-rule:nonzero;display:inline;overflow:visible;visibility:visible;opacity:1;isolation:auto;mix-blend-mode:normal;color-interpolation:sRGB;color-interpolation-filters:linearRGB;solid-color:#000000;solid-opacity:1;fill:none;fill-opacity:1;fill-rule:nonzero;stroke:#ff0000;stroke-width:1.07038498;stroke-linecap:butt;stroke-linejoin:miter;stroke-miterlimit:4;stroke-dasharray:none;stroke-dashoffset:0;stroke-opacity:1;color-rendering:auto;image-rendering:auto;shape-rendering:auto;text-rendering:auto;enable-background:accumulate"
         d="m 529.3101,626.98901 a 10.271894,10.271894 0 0 1 -10.27189,10.2719 10.271894,10.271894 0 0 1 -10.2719,-10.2719 10.271894,10.271894 0 0 1 10.2719,-10.27189 10.271894,10.271894 0 0 1 10.27189,10.27189 z"
         id="path4192-0-4" />
      <path
         style="color:#000000;clip-rule:nonzero;display:inline;overflow:visible;visibility:visible;opacity:1;isolation:auto;mix-blend-mode:normal;color-interpolation:sRGB;color-interpolation-filters:linearRGB;solid-color:#000000;solid-opacity:1;fill:none;fill-opacity:1;fill-rule:nonzero;stroke:#ff0000;stroke-width:1.07038498;stroke-linecap:butt;stroke-linejoin:miter;stroke-miterlimit:4;stroke-dasharray:none;stroke-dashoffset:0;stroke-opacity:1;color-rendering:auto;image-rendering:auto;shape-rendering:auto;text-rendering:auto;enable-background:accumulate"
         d="m 529.3101,680.98901 a 10.271894,10.271894 0 0 1 -10.27189,10.2719 10.271894,10.271894 0 0 1 -10.2719,-10.2719 10.271894,10.271894 0 0 1 10.2719,-10.27189 10.271894,10.271894 0 0 1 10.27189,10.27189 z"
         id="path4192-0-4-8" />
      <path
         style="color:#000000;clip-rule:nonzero;display:inline;overflow:visible;visibility:visible;opacity:1;isolation:auto;mix-blend-mode:normal;color-interpolation:sRGB;color-interpolation-filters:linearRGB;solid-color:#000000;solid-opacity:1;fill:none;fill-opacity:1;fill-rule:nonzero;stroke:#ff0000;stroke-width:1.07038498;stroke-linecap:butt;stroke-linejoin:miter;stroke-miterlimit:4;stroke-dasharray:none;stroke-dashoffset:0;stroke-opacity:1;color-rendering:auto;image-rendering:auto;shape-rendering:auto;text-rendering:auto;enable-background:accumulate"
         d="m 529.3101,734.98901 a 10.271894,10.271894 0 0 1 -10.27189,10.2719 10.271894,10.271894 0 0 1 -10.2719,-10.2719 10.271894,10.271894 0 0 1 10.2719,-10.27189 10.271894,10.271894 0 0 1 10.27189,10.27189 z"
         id="path4192-0-4-6" />
      <path
         style="color:#000000;clip-rule:nonzero;display:inline;overflow:visible;visibility:visible;opacity:1;isolation:auto;mix-blend-mode:normal;color-interpolation:sRGB;color-interpolation-filters:linearRGB;solid-color:#000000;solid-opacity:1;fill:none;fill-opacity:1;fill-rule:nonzero;stroke:#ff0000;stroke-width:1.22737181;stroke-linecap:butt;stroke-linejoin:miter;stroke-miterlimit:4;stroke-dasharray:none;stroke-dashoffset:0;stroke-opacity:1;color-rendering:auto;image-rendering:auto;shape-rendering:auto;text-rendering:auto;enable-background:accumulate"
         d="m 501.75816,549.58577 30.27263,0 0,58.90255 -30.27263,0 z"
         id="rect4251"
         inkscape:connector-curvature="0" />
      <path
         style="color:#000000;clip-rule:nonzero;display:inline;overflow:visible;visibility:visible;opacity:1;isolation:auto;mix-blend-mode:normal;color-interpolation:sRGB;color-interpolation-filters:linearRGB;solid-color:#000000;solid-opacity:1;fill:none;fill-opacity:1;fill-rule:nonzero;stroke:#ff0000;stroke-width:0.91787022;stroke-linecap:butt;stroke-linejoin:miter;stroke-miterlimit:4;stroke-dasharray:none;stroke-dashoffset:0;stroke-opacity:1;color-rendering:auto;image-rendering:auto;shape-rendering:auto;text-rendering:auto;enable-background:accumulate"
         d="m 505.11468,433.48901 a 8.576498,8.576498 0 0 1 -8.5765,8.5765 8.576498,8.576498 0 0 1 -8.5765,-8.5765 8.576498,8.576498 0 0 1 8.5765,-8.57649 8.576498,8.576498 0 0 1 8.5765,8.57649 z"
         id="path4253" />
      <path
         style="color:#000000;clip-rule:nonzero;display:inline;overflow:visible;visibility:visible;opacity:1;isolation:auto;mix-blend-mode:normal;color-interpolation:sRGB;color-interpolation-filters:linearRGB;solid-color:#000000;solid-opacity:1;fill:none;fill-opacity:1;fill-rule:nonzero;stroke:#ff0000;stroke-width:0.77464896;stroke-linecap:butt;stroke-linejoin:miter;stroke-miterlimit:4;stroke-dasharray:none;stroke-dashoffset:0;stroke-opacity:1;color-rendering:auto;image-rendering:auto;shape-rendering:auto;text-rendering:auto;enable-background:accumulate"
         d="m 501.82014,410.98901 a 5.2819667,5.2819667 0 0 1 -5.28196,5.28197 5.2819667,5.2819667 0 0 1 -5.28197,-5.28197 5.2819667,5.2819667 0 0 1 5.28197,-5.28196 5.2819667,5.2819667 0 0 1 5.28196,5.28196 z"
         id="path4255" />
    </g>
  </g>
</svg>
