<?xml version="1.0" encoding="UTF-8" standalone="no"?>
<!-- Created with Inkscape (http://www.inkscape.org/) -->

<svg
   xmlns:dc="http://purl.org/dc/elements/1.1/"
   xmlns:cc="http://creativecommons.org/ns#"
   xmlns:rdf="http://www.w3.org/1999/02/22-rdf-syntax-ns#"
   xmlns:svg="http://www.w3.org/2000/svg"
   xmlns="http://www.w3.org/2000/svg"
   xmlns:sodipodi="http://sodipodi.sourceforge.net/DTD/sodipodi-0.dtd"
   xmlns:inkscape="http://www.inkscape.org/namespaces/inkscape"
   width="30.402mm"
   height="128.782mm"
   viewBox="0 0 107.72362 456.31416"
   id="svg2"
   version="1.1"
   inkscape:version="0.91 r13725"
   sodipodi:docname="ga_front_panel_2.svg">
  <sodipodi:namedview
     id="base"
     pagecolor="#ffffff"
     bordercolor="#666666"
     borderopacity="1.0"
     inkscape:pageopacity="0.0"
     inkscape:pageshadow="2"
     inkscape:zoom="1.4"
     inkscape:cx="85.178977"
     inkscape:cy="328.74144"
     inkscape:document-units="px"
     inkscape:current-layer="layer1"
     showgrid="false"
     inkscape:window-width="1858"
     inkscape:window-height="1178"
     inkscape:window-x="1974"
     inkscape:window-y="-8"
     inkscape:window-maximized="1" />
  <defs
     id="defs4" />
  <metadata
     id="metadata7">
    <rdf:RDF>
      <cc:Work
         rdf:about="">
        <dc:format>image/svg+xml</dc:format>
        <dc:type
           rdf:resource="http://purl.org/dc/dcmitype/StillImage" />
        <dc:title></dc:title>
      </cc:Work>
    </rdf:RDF>
  </metadata>
  <g
     id="layer1"
     inkscape:groupmode="layer"
     inkscape:label="Layer 1"
     transform="translate(0,-596.04802)">
    <g
       id="g4141"
       transform="translate(0.5,596.54723)"
       inkscape:label="grp"
       style="fill:none;stroke:#ff0000;stroke-width:0.70866134;stroke-miterlimit:4;stroke-dasharray:none;stroke-opacity:1">
      <path
         style="fill:none;stroke:#ff0000;stroke-width:0.70866132;stroke-miterlimit:4;stroke-dasharray:none;stroke-opacity:1"
         d="m 0,0 106.72441,0 0,455.31497 -106.72441,0 z"
         id="rect4143" />
      <path
         style="fill:none;stroke:#ff0000;stroke-width:0.70866132;stroke-miterlimit:4;stroke-dasharray:none;stroke-opacity:1"
         d="m 32.244094,10.629921 a 5.6692915,5.6692915 0 0 1 -5.669292,5.669291 5.6692915,5.6692915 0 0 1 -5.669291,-5.669291 5.6692915,5.6692915 0 0 1 5.669291,-5.6692915 5.6692915,5.6692915 0 0 1 5.669292,5.6692915 z"
         id="path4145" />
      <path
         style="fill:none;stroke:#ff0000;stroke-width:0.70866132;stroke-miterlimit:4;stroke-dasharray:none;stroke-opacity:1"
         d="m 32.244094,444.68503 a 5.6692915,5.6692915 0 0 1 -5.669292,5.66929 5.6692915,5.6692915 0 0 1 -5.669291,-5.66929 5.6692915,5.6692915 0 0 1 5.669291,-5.66929 5.6692915,5.6692915 0 0 1 5.669292,5.66929 z"
         id="path4147" />
      <path
         style="fill:none;stroke:#ff0000;stroke-width:0.70866132;stroke-miterlimit:4;stroke-dasharray:none;stroke-opacity:1"
         d="m 86.244098,10.629921 a 5.6692915,5.6692915 0 0 1 -5.669292,5.669291 5.6692915,5.6692915 0 0 1 -5.669291,-5.669291 5.6692915,5.6692915 0 0 1 5.669291,-5.6692915 5.6692915,5.6692915 0 0 1 5.669292,5.6692915 z"
         id="path4157" />
      <path
         style="fill:none;stroke:#ff0000;stroke-width:0.70866132;stroke-miterlimit:4;stroke-dasharray:none;stroke-opacity:1"
         d="m 86.244098,444.68503 a 5.6692915,5.6692915 0 0 1 -5.669292,5.66929 5.6692915,5.6692915 0 0 1 -5.669291,-5.66929 5.6692915,5.6692915 0 0 1 5.669291,-5.66929 5.6692915,5.6692915 0 0 1 5.669292,5.66929 z"
         id="path4159" />
    </g>
    <path
       style="color:#000000;clip-rule:nonzero;display:inline;overflow:visible;visibility:visible;opacity:1;isolation:auto;mix-blend-mode:normal;color-interpolation:sRGB;color-interpolation-filters:linearRGB;solid-color:#000000;solid-opacity:1;fill:none;fill-opacity:1;fill-rule:nonzero;stroke:#ff0000;stroke-width:0.70866132;stroke-linecap:butt;stroke-linejoin:miter;stroke-miterlimit:4;stroke-dasharray:none;stroke-dashoffset:0;stroke-opacity:1;color-rendering:auto;image-rendering:auto;shape-rendering:auto;text-rendering:auto;enable-background:accumulate"
       d="M 51.076714,999.46143 A 10.648148,10.648148 0 0 1 40.428566,1010.1096 10.648148,10.648148 0 0 1 29.780418,999.46143 10.648148,10.648148 0 0 1 40.428566,988.81328 10.648148,10.648148 0 0 1 51.076714,999.46143 Z"
       id="path4171" />
    <path
       style="color:#000000;clip-rule:nonzero;display:inline;overflow:visible;visibility:visible;opacity:1;isolation:auto;mix-blend-mode:normal;color-interpolation:sRGB;color-interpolation-filters:linearRGB;solid-color:#000000;solid-opacity:1;fill:none;fill-opacity:1;fill-rule:nonzero;stroke:#ff0000;stroke-width:0.70866132;stroke-linecap:butt;stroke-linejoin:miter;stroke-miterlimit:4;stroke-dasharray:none;stroke-dashoffset:0;stroke-opacity:1;color-rendering:auto;image-rendering:auto;shape-rendering:auto;text-rendering:auto;enable-background:accumulate"
       d="m 51.687673,687.03033 a 11.259107,11.259107 0 0 1 -11.259107,11.25911 11.259107,11.259107 0 0 1 -11.259107,-11.25911 11.259107,11.259107 0 0 1 11.259107,-11.2591 11.259107,11.259107 0 0 1 11.259107,11.2591 z"
       id="path4171-2" />
    <path
       style="color:#000000;clip-rule:nonzero;display:inline;overflow:visible;visibility:visible;opacity:1;isolation:auto;mix-blend-mode:normal;color-interpolation:sRGB;color-interpolation-filters:linearRGB;solid-color:#000000;solid-opacity:1;fill:none;fill-opacity:1;fill-rule:nonzero;stroke:#ff0000;stroke-width:0.70866132;stroke-linecap:butt;stroke-linejoin:miter;stroke-miterlimit:4;stroke-dasharray:none;stroke-dashoffset:0;stroke-opacity:1;color-rendering:auto;image-rendering:auto;shape-rendering:auto;text-rendering:auto;enable-background:accumulate"
       d="M 51.687673,651.59729 A 11.259107,11.259107 0 0 1 40.428566,662.8564 11.259107,11.259107 0 0 1 29.169459,651.59729 11.259107,11.259107 0 0 1 40.428566,640.33818 11.259107,11.259107 0 0 1 51.687673,651.59729 Z"
       id="path4171-5" />
    <path
       style="color:#000000;clip-rule:nonzero;display:inline;overflow:visible;visibility:visible;opacity:1;isolation:auto;mix-blend-mode:normal;color-interpolation:sRGB;color-interpolation-filters:linearRGB;solid-color:#000000;solid-opacity:1;fill:none;fill-opacity:1;fill-rule:nonzero;stroke:#ff0000;stroke-width:0.70866132;stroke-linecap:butt;stroke-linejoin:miter;stroke-miterlimit:4;stroke-dasharray:none;stroke-dashoffset:0;stroke-opacity:1;color-rendering:auto;image-rendering:auto;shape-rendering:auto;text-rendering:auto;enable-background:accumulate"
       d="M 58.059105,740.80005 A 17.630539,17.630539 0 0 1 40.428566,758.43059 17.630539,17.630539 0 0 1 22.798027,740.80005 17.630539,17.630539 0 0 1 40.428566,723.16951 17.630539,17.630539 0 0 1 58.059105,740.80005 Z"
       id="path4171-2-4" />
    <path
       style="color:#000000;clip-rule:nonzero;display:inline;overflow:visible;visibility:visible;opacity:1;isolation:auto;mix-blend-mode:normal;color-interpolation:sRGB;color-interpolation-filters:linearRGB;solid-color:#000000;solid-opacity:1;fill:none;fill-opacity:1;fill-rule:nonzero;stroke:#ff0000;stroke-width:0.70866132;stroke-linecap:butt;stroke-linejoin:miter;stroke-miterlimit:4;stroke-dasharray:none;stroke-dashoffset:0;stroke-opacity:1;color-rendering:auto;image-rendering:auto;shape-rendering:auto;text-rendering:auto;enable-background:accumulate"
       d="M 58.059105,797.49298 A 17.630539,17.630539 0 0 1 40.428566,815.12352 17.630539,17.630539 0 0 1 22.798027,797.49298 17.630539,17.630539 0 0 1 40.428566,779.86244 17.630539,17.630539 0 0 1 58.059105,797.49298 Z"
       id="path4171-2-4-2" />
    <path
       style="color:#000000;clip-rule:nonzero;display:inline;overflow:visible;visibility:visible;opacity:1;isolation:auto;mix-blend-mode:normal;color-interpolation:sRGB;color-interpolation-filters:linearRGB;solid-color:#000000;solid-opacity:1;fill:none;fill-opacity:1;fill-rule:nonzero;stroke:#ff0000;stroke-width:0.70866132;stroke-linecap:butt;stroke-linejoin:miter;stroke-miterlimit:4;stroke-dasharray:none;stroke-dashoffset:0;stroke-opacity:1;color-rendering:auto;image-rendering:auto;shape-rendering:auto;text-rendering:auto;enable-background:accumulate"
       d="M 58.059105,854.18591 A 17.630539,17.630539 0 0 1 40.428566,871.81645 17.630539,17.630539 0 0 1 22.798027,854.18591 17.630539,17.630539 0 0 1 40.428566,836.55537 17.630539,17.630539 0 0 1 58.059105,854.18591 Z"
       id="path4171-2-4-26" />
    <path
       style="color:#000000;clip-rule:nonzero;display:inline;overflow:visible;visibility:visible;opacity:1;isolation:auto;mix-blend-mode:normal;color-interpolation:sRGB;color-interpolation-filters:linearRGB;solid-color:#000000;solid-opacity:1;fill:none;fill-opacity:1;fill-rule:nonzero;stroke:#ff0000;stroke-width:0.70866132;stroke-linecap:butt;stroke-linejoin:miter;stroke-miterlimit:4;stroke-dasharray:none;stroke-dashoffset:0;stroke-opacity:1;color-rendering:auto;image-rendering:auto;shape-rendering:auto;text-rendering:auto;enable-background:accumulate"
       d="M 58.059105,910.87878 A 17.630539,17.630539 0 0 1 40.428566,928.50932 17.630539,17.630539 0 0 1 22.798027,910.87878 17.630539,17.630539 0 0 1 40.428566,893.24825 17.630539,17.630539 0 0 1 58.059105,910.87878 Z"
       id="path4171-2-4-6" />
  </g>
</svg>
